<svg xmlns="http://www.w3.org/2000/svg" viewBox="0 0 1024 1024" width="1024" height="1024"><defs><linearGradient id="bg" x1="0" y1="0" x2="0.35" y2="1"><stop offset="0" stop-color="rgba(255,255,255,.34)"/><stop offset="1" stop-color="rgba(255,255,255,.12)"/></linearGradient></defs><rect x="0" y="0" width="1024" height="1024" rx="229" fill="url(#bg)"/><rect x="6" y="6" width="1012" height="1012" rx="226" fill="none" stroke="rgba(255,255,255,.5)" stroke-width="12"/><g opacity="0.16" transform="translate(0,34)"><rect x="214" y="392" width="84" height="240" rx="42" fill="#FFFFFF"/><rect x="322" y="282" width="84" height="460" rx="42" fill="#FFFFFF"/><rect x="430" y="352" width="84" height="320" rx="42" fill="#FFFFFF"/><rect x="578" y="394" width="236" height="236" rx="62" fill="#FFFFFF"/><rect x="578" y="452" width="236" height="18" rx="0" fill="#FFFFFF"/></g><rect x="214" y="392" width="84" height="240" rx="42" fill="#FFFFFF"/><rect x="322" y="282" width="84" height="460" rx="42" fill="#FFFFFF"/><rect x="430" y="352" width="84" height="320" rx="42" fill="#FFFFFF"/><rect x="578" y="394" width="236" height="236" rx="62" fill="#FFFFFF"/><rect x="578" y="452" width="236" height="18" rx="0" fill="rgba(90,80,150,.38)"/></svg>